<svg width="32" height="32" viewBox="0 0 32 32" fill="none" xmlns="http://www.w3.org/2000/svg">
<path fill-rule="evenodd" clip-rule="evenodd" d="M6.75 9C6.33579 9 6 9.33579 6 9.75C6 10.1642 6.33579 10.5 6.75 10.5H17.75C18.1642 10.5 18.5 10.1642 18.5 9.75C18.5 9.33579 18.1642 9 17.75 9H6.75ZM6.75 14C6.33579 14 6 14.3358 6 14.75C6 15.1642 6.33579 15.5 6.75 15.5H20.75C21.1642 15.5 21.5 15.1642 21.5 14.75C21.5 14.3358 21.1642 14 20.75 14H6.75ZM6 19.75C6 19.3358 6.33579 19 6.75 19H15.75C16.1642 19 16.5 19.3358 16.5 19.75C16.5 20.1642 16.1642 20.5 15.75 20.5H6.75C6.33579 20.5 6 20.1642 6 19.75ZM23.5002 15.8423C23.9144 15.8423 24.2502 16.1781 24.2502 16.5923V19.0002H26.6581C27.0723 19.0002 27.4081 19.336 27.4081 19.7502C27.4081 20.1644 27.0723 20.5002 26.6581 20.5002H24.2502V22.9081C24.2502 23.3223 23.9144 23.6581 23.5002 23.6581C23.086 23.6581 22.7502 23.3223 22.7502 22.9081V20.5002H20.3423C19.9281 20.5002 19.5923 20.1644 19.5923 19.7502C19.5923 19.336 19.9281 19.0002 20.3423 19.0002H22.7502V16.5923C22.7502 16.1781 23.086 15.8423 23.5002 15.8423Z" fill="#0B4589"/>
</svg>
