<svg width="32" height="32" viewBox="0 0 32 32" fill="none" xmlns="http://www.w3.org/2000/svg">
<path fill-rule="evenodd" clip-rule="evenodd" d="M14.0039 9.67085C14.1133 9.56146 14.2616 9.5 14.4163 9.5H17.083C17.2377 9.5 17.3861 9.56146 17.4955 9.67085C17.6049 9.78025 17.6663 9.92862 17.6663 10.0833V10.667H13.833V10.0833C13.833 9.92862 13.8945 9.78025 14.0039 9.67085ZM12.333 10.667V10.0833C12.333 9.5308 12.5525 9.00089 12.9432 8.61019C13.3339 8.21949 13.8638 8 14.4163 8H17.083C17.6355 8 18.1654 8.21949 18.5561 8.61019C18.9468 9.00089 19.1663 9.5308 19.1663 10.0833V10.667H20.394C20.4014 10.6668 20.4089 10.6667 20.4163 10.6667C20.4238 10.6667 20.4312 10.6668 20.4387 10.667H21.75C22.1642 10.667 22.5 11.0028 22.5 11.417C22.5 11.8312 22.1642 12.167 21.75 12.167H21.1663V20.75C21.1663 21.3025 20.9468 21.8324 20.5561 22.2231C20.1654 22.6138 19.6355 22.8333 19.083 22.8333H12.4163C11.8638 22.8333 11.3339 22.6138 10.9432 22.2231C10.5525 21.8324 10.333 21.3025 10.333 20.75V12.167H9.75C9.33579 12.167 9 11.8312 9 11.417C9 11.0028 9.33579 10.667 9.75 10.667H11.0607C11.0681 10.6668 11.0755 10.6667 11.083 10.6667C11.0905 10.6667 11.0979 10.6668 11.1053 10.667H12.333ZM11.833 12.167V20.75C11.833 20.9047 11.8945 21.0531 12.0039 21.1625C12.1133 21.2719 12.2616 21.3333 12.4163 21.3333H19.083C19.2377 21.3333 19.3861 21.2719 19.4955 21.1625C19.6049 21.0531 19.6663 20.9047 19.6663 20.75V12.167H11.833Z" fill="#0B4589"/>
</svg>
