<svg width="32" height="32" viewBox="0 0 32 32" fill="none" xmlns="http://www.w3.org/2000/svg">
<path d="M20.7363 7.75C21.9255 7.76802 23.032 8.21686 23.8799 9.01562L24.0459 9.18066H24.0469C25.722 10.9195 25.6513 13.7971 23.8105 15.5967L23.0518 16.3389L23.0664 16.3457L16.0068 23.2461L8.18945 15.6045C6.40569 13.8607 6.28497 11.0993 7.80078 9.35449L7.95215 9.18848L7.9541 9.1875C8.82043 8.28624 9.9942 7.77631 11.2627 7.75684C12.4722 7.75817 13.5861 8.16243 14.457 8.92773L14.6279 9.08594L15.4736 9.91992L16 10.4385L16.5264 9.91992L17.374 9.08398C18.2663 8.21193 19.46 7.75167 20.7363 7.75Z" stroke="#0B4589" stroke-width="1.5"/>
</svg>
