<svg width="32" height="32" viewBox="0 0 32 32" fill="none" xmlns="http://www.w3.org/2000/svg">
<path fill-rule="evenodd" clip-rule="evenodd" d="M16.75 8C16.75 7.58579 16.4142 7.25 16 7.25C15.5858 7.25 15.25 7.58579 15.25 8L15.25 15.25H8C7.58579 15.25 7.25 15.5858 7.25 16C7.25 16.4142 7.58579 16.75 8 16.75H15.25L15.25 24C15.25 24.4142 15.5858 24.75 16 24.75C16.4142 24.75 16.75 24.4142 16.75 24V16.75H24C24.4142 16.75 24.75 16.4142 24.75 16C24.75 15.5858 24.4142 15.25 24 15.25H16.75V8Z" fill="#0B4589"/>
</svg>
