<svg width="64" height="64" viewBox="0 0 64 64" fill="none" xmlns="http://www.w3.org/2000/svg">
<path d="M51.5132 56.9996C51.5132 57.4138 51.8489 57.7496 52.2632 57.7496C52.6774 57.7496 53.0132 57.4138 53.0132 56.9996H51.5132ZM10.25 56.9996C10.25 57.4138 10.5858 57.7496 11 57.7496C11.4142 57.7496 11.75 57.4138 11.75 56.9996H10.25ZM52.2632 56.9996H53.0132C53.0132 53.0429 50.4837 49.5709 46.6219 47.1254C42.751 44.674 37.4492 43.1829 31.6316 43.1829V43.9329V44.6829C37.2095 44.6829 42.2235 46.1155 45.8194 48.3927C49.4246 50.6757 51.5132 53.7369 51.5132 56.9996H52.2632ZM31.6316 43.9329V43.1829C25.814 43.1829 20.5122 44.674 16.6412 47.1254C12.7795 49.5709 10.25 53.0429 10.25 56.9996H11H11.75C11.75 53.7369 13.8385 50.6757 17.4437 48.3927C21.0397 46.1155 26.0537 44.6829 31.6316 44.6829V43.9329ZM31.6313 34.1333V33.3833C24.4125 33.3833 18.627 27.8332 18.627 21.0667H17.877H17.127C17.127 28.7332 23.6575 34.8833 31.6313 34.8833V34.1333ZM17.877 21.0667H18.627C18.627 14.3001 24.4125 8.75 31.6313 8.75V8V7.25C23.6575 7.25 17.127 13.4001 17.127 21.0667H17.877ZM31.6313 8V8.75C38.8502 8.75 44.6357 14.3001 44.6357 21.0667H45.3857H46.1357C46.1357 13.4001 39.6052 7.25 31.6313 7.25V8ZM45.3857 21.0667H44.6357C44.6357 27.8332 38.8502 33.3833 31.6313 33.3833V34.1333V34.8833C39.6052 34.8833 46.1357 28.7332 46.1357 21.0667H45.3857Z" fill="#0B4589"/>
</svg>
