<svg width="32" height="32" viewBox="0 0 32 32" fill="none" xmlns="http://www.w3.org/2000/svg">
<path d="M18.8633 17.8027C18.5704 17.5098 18.0956 17.5098 17.8027 17.8027C17.5098 18.0956 17.5098 18.5704 17.8027 18.8633L18.8633 17.8027ZM22.4693 23.53C22.7622 23.8229 23.2371 23.8229 23.53 23.53C23.8229 23.2371 23.8229 22.7622 23.53 22.4693L22.4693 23.53ZM14.4444 9V9.75V9ZM14.4444 19.1389C14.0302 19.1389 13.6944 19.4747 13.6944 19.8889C13.6944 20.3031 14.0302 20.6389 14.4444 20.6389V19.1389ZM17.8027 18.8633L22.4693 23.53L23.53 22.4693L18.8633 17.8027L17.8027 18.8633ZM14.4444 19.1389C12.7673 19.1389 11.2175 18.2441 10.3789 16.7917L9.0799 17.5417C10.1864 19.4582 12.2314 20.6389 14.4444 20.6389V19.1389ZM10.3789 16.7917C9.54035 15.3392 9.54035 13.5497 10.3789 12.0972L9.0799 11.3472C7.97337 13.2638 7.97337 15.6251 9.0799 17.5417L10.3789 16.7917ZM10.3789 12.0972C11.2175 10.6448 12.7673 9.75 14.4444 9.75V8.25C12.2314 8.25 10.1864 9.43065 9.0799 11.3472L10.3789 12.0972ZM14.4444 9.75C17.0371 9.75 19.1389 11.8518 19.1389 14.4444H20.6389C20.6389 11.0233 17.8655 8.25 14.4444 8.25V9.75ZM19.1389 14.4444C19.1389 17.0371 17.0371 19.1389 14.4444 19.1389V20.6389C17.8655 20.6389 20.6389 17.8655 20.6389 14.4444H19.1389Z" fill="#0B4589"/>
</svg>
