<svg width="32" height="32" viewBox="0 0 32 32" fill="none" xmlns="http://www.w3.org/2000/svg">
<path d="M21.0395 23C21.0395 23.4142 21.3753 23.75 21.7895 23.75C22.2037 23.75 22.5395 23.4142 22.5395 23H21.0395ZM9.25 23C9.25 23.4142 9.58579 23.75 10 23.75C10.4142 23.75 10.75 23.4142 10.75 23H9.25ZM22.5395 23C22.5395 21.6217 21.6593 20.4829 20.4643 19.7262C19.2601 18.9636 17.6425 18.5167 15.8947 18.5167V20.0167C17.4028 20.0167 18.7326 20.405 19.6618 20.9935C20.6002 21.5877 21.0395 22.3157 21.0395 23H22.5395ZM15.8947 18.5167C14.147 18.5167 12.5294 18.9636 11.3252 19.7262C10.1302 20.4829 9.25 21.6217 9.25 23H10.75C10.75 22.3157 11.1892 21.5877 12.1277 20.9935C13.0569 20.405 14.3867 20.0167 15.8947 20.0167V18.5167ZM15.8948 15.7167C14.1019 15.7167 12.715 14.3452 12.715 12.7333H11.215C11.215 15.2452 13.3469 17.2167 15.8948 17.2167V15.7167ZM12.715 12.7333C12.715 11.1215 14.1019 9.75 15.8948 9.75V8.25C13.3469 8.25 11.215 10.2215 11.215 12.7333H12.715ZM15.8948 9.75C17.6877 9.75 19.0746 11.1215 19.0746 12.7333H20.5746C20.5746 10.2215 18.4427 8.25 15.8948 8.25V9.75ZM19.0746 12.7333C19.0746 14.3452 17.6877 15.7167 15.8948 15.7167V17.2167C18.4427 17.2167 20.5746 15.2452 20.5746 12.7333H19.0746Z" fill="#0B4589"/>
</svg>
